<mxfile host="app.diagrams.net" agent="Mozilla/5.0 (Windows NT 10.0; Win64; x64) AppleWebKit/537.36 (KHTML, like Gecko) Chrome/132.0.0.0 Safari/537.36" version="26.0.16">
  <diagram name="Page-1" id="uuQi2splyWyxESySe9Al">
    <mxGraphModel dx="1034" dy="789" grid="1" gridSize="10" guides="1" tooltips="1" connect="1" arrows="1" fold="1" page="1" pageScale="1" pageWidth="850" pageHeight="1100" math="0" shadow="0">
      <root>
        <mxCell id="0" />
        <mxCell id="1" parent="0" />
        <mxCell id="M-P0CpYu54wChjRLXjfq-5" value="Weak Entity" style="shape=ext;margin=3;double=1;whiteSpace=wrap;html=1;align=center;" parent="1" vertex="1">
          <mxGeometry x="310" y="280" width="100" height="40" as="geometry" />
        </mxCell>
        <mxCell id="M-P0CpYu54wChjRLXjfq-6" value="Associative&#xa;Entity" style="shape=associativeEntity;whiteSpace=wrap;html=1;align=center;" parent="1" vertex="1">
          <mxGeometry x="425" y="270" width="140" height="60" as="geometry" />
        </mxCell>
        <mxCell id="M-P0CpYu54wChjRLXjfq-7" value="Entity" style="html=1;dashed=0;whiteSpace=wrap;" parent="1" vertex="1">
          <mxGeometry x="310" y="208" width="100" height="50" as="geometry" />
        </mxCell>
        <mxCell id="M-P0CpYu54wChjRLXjfq-8" value="Relation" style="rhombus;whiteSpace=wrap;html=1;" parent="1" vertex="1">
          <mxGeometry x="330" y="30" width="80" height="80" as="geometry" />
        </mxCell>
        <mxCell id="M-P0CpYu54wChjRLXjfq-9" value="" style="rhombus;whiteSpace=wrap;html=1;" parent="1" vertex="1">
          <mxGeometry x="442.5" y="35" width="80" height="85" as="geometry" />
        </mxCell>
        <mxCell id="M-P0CpYu54wChjRLXjfq-10" value="Weak relation" style="rhombus;whiteSpace=wrap;html=1;" parent="1" vertex="1">
          <mxGeometry x="450" y="45" width="65" height="65" as="geometry" />
        </mxCell>
        <mxCell id="M-P0CpYu54wChjRLXjfq-11" value="name" style="ellipse;whiteSpace=wrap;html=1;" parent="1" vertex="1">
          <mxGeometry x="670" y="45" width="120" height="80" as="geometry" />
        </mxCell>
        <mxCell id="M-P0CpYu54wChjRLXjfq-12" value="Derived Attribute" style="ellipse;whiteSpace=wrap;html=1;align=center;dashed=1;" parent="1" vertex="1">
          <mxGeometry x="630" y="148" width="120" height="60" as="geometry" />
        </mxCell>
        <mxCell id="M-P0CpYu54wChjRLXjfq-13" value="Multivalued" style="ellipse;shape=doubleEllipse;margin=3;whiteSpace=wrap;html=1;align=center;" parent="1" vertex="1">
          <mxGeometry x="700" y="220" width="100" height="40" as="geometry" />
        </mxCell>
        <mxCell id="M-P0CpYu54wChjRLXjfq-19" style="edgeStyle=orthogonalEdgeStyle;rounded=0;orthogonalLoop=1;jettySize=auto;html=1;exitX=0;exitY=0.5;exitDx=0;exitDy=0;entryX=1;entryY=0.5;entryDx=0;entryDy=0;" parent="1" source="M-P0CpYu54wChjRLXjfq-14" target="M-P0CpYu54wChjRLXjfq-18" edge="1">
          <mxGeometry relative="1" as="geometry" />
        </mxCell>
        <mxCell id="M-P0CpYu54wChjRLXjfq-34" style="edgeStyle=orthogonalEdgeStyle;rounded=0;orthogonalLoop=1;jettySize=auto;html=1;exitX=1;exitY=0.5;exitDx=0;exitDy=0;entryX=0;entryY=0.5;entryDx=0;entryDy=0;" parent="1" source="M-P0CpYu54wChjRLXjfq-14" target="M-P0CpYu54wChjRLXjfq-33" edge="1">
          <mxGeometry relative="1" as="geometry" />
        </mxCell>
        <mxCell id="M-P0CpYu54wChjRLXjfq-14" value="Student" style="rounded=0;whiteSpace=wrap;html=1;" parent="1" vertex="1">
          <mxGeometry x="365" y="650" width="120" height="60" as="geometry" />
        </mxCell>
        <mxCell id="M-P0CpYu54wChjRLXjfq-15" value="&lt;u&gt;id&lt;/u&gt;" style="ellipse;whiteSpace=wrap;html=1;" parent="1" vertex="1">
          <mxGeometry x="285" y="580" width="80" height="60" as="geometry" />
        </mxCell>
        <mxCell id="M-P0CpYu54wChjRLXjfq-16" value="dept" style="ellipse;whiteSpace=wrap;html=1;" parent="1" vertex="1">
          <mxGeometry x="385" y="570" width="80" height="60" as="geometry" />
        </mxCell>
        <mxCell id="M-P0CpYu54wChjRLXjfq-17" value="phone_number" style="ellipse;whiteSpace=wrap;html=1;" parent="1" vertex="1">
          <mxGeometry x="485" y="570" width="105" height="70" as="geometry" />
        </mxCell>
        <mxCell id="M-P0CpYu54wChjRLXjfq-18" value="personal info" style="ellipse;whiteSpace=wrap;html=1;" parent="1" vertex="1">
          <mxGeometry x="260" y="650" width="90" height="50" as="geometry" />
        </mxCell>
        <mxCell id="M-P0CpYu54wChjRLXjfq-20" style="edgeStyle=orthogonalEdgeStyle;rounded=0;orthogonalLoop=1;jettySize=auto;html=1;exitX=0.5;exitY=0;exitDx=0;exitDy=0;entryX=0.418;entryY=1.011;entryDx=0;entryDy=0;entryPerimeter=0;" parent="1" source="M-P0CpYu54wChjRLXjfq-14" target="M-P0CpYu54wChjRLXjfq-16" edge="1">
          <mxGeometry relative="1" as="geometry" />
        </mxCell>
        <mxCell id="M-P0CpYu54wChjRLXjfq-21" style="edgeStyle=orthogonalEdgeStyle;rounded=0;orthogonalLoop=1;jettySize=auto;html=1;exitX=0;exitY=0;exitDx=0;exitDy=0;entryX=0.882;entryY=0.805;entryDx=0;entryDy=0;entryPerimeter=0;" parent="1" source="M-P0CpYu54wChjRLXjfq-14" target="M-P0CpYu54wChjRLXjfq-15" edge="1">
          <mxGeometry relative="1" as="geometry" />
        </mxCell>
        <mxCell id="M-P0CpYu54wChjRLXjfq-22" style="edgeStyle=orthogonalEdgeStyle;rounded=0;orthogonalLoop=1;jettySize=auto;html=1;exitX=1;exitY=0;exitDx=0;exitDy=0;entryX=0.255;entryY=0.935;entryDx=0;entryDy=0;entryPerimeter=0;" parent="1" source="M-P0CpYu54wChjRLXjfq-14" target="M-P0CpYu54wChjRLXjfq-17" edge="1">
          <mxGeometry relative="1" as="geometry" />
        </mxCell>
        <mxCell id="M-P0CpYu54wChjRLXjfq-24" style="edgeStyle=orthogonalEdgeStyle;rounded=0;orthogonalLoop=1;jettySize=auto;html=1;exitX=0;exitY=0.5;exitDx=0;exitDy=0;entryX=1;entryY=0.5;entryDx=0;entryDy=0;" parent="1" source="M-P0CpYu54wChjRLXjfq-25" edge="1">
          <mxGeometry relative="1" as="geometry">
            <mxPoint x="685.0000000000027" y="630" as="targetPoint" />
          </mxGeometry>
        </mxCell>
        <mxCell id="M-P0CpYu54wChjRLXjfq-25" value="Course" style="rounded=0;whiteSpace=wrap;html=1;" parent="1" vertex="1">
          <mxGeometry x="730" y="625" width="120" height="60" as="geometry" />
        </mxCell>
        <mxCell id="M-P0CpYu54wChjRLXjfq-26" value="&lt;u&gt;id&lt;/u&gt;" style="ellipse;whiteSpace=wrap;html=1;" parent="1" vertex="1">
          <mxGeometry x="620" y="535" width="80" height="60" as="geometry" />
        </mxCell>
        <mxCell id="M-P0CpYu54wChjRLXjfq-27" value="Course Code" style="ellipse;whiteSpace=wrap;html=1;" parent="1" vertex="1">
          <mxGeometry x="720" y="525" width="80" height="60" as="geometry" />
        </mxCell>
        <mxCell id="M-P0CpYu54wChjRLXjfq-28" value="Credit" style="ellipse;whiteSpace=wrap;html=1;" parent="1" vertex="1">
          <mxGeometry x="820" y="525" width="105" height="70" as="geometry" />
        </mxCell>
        <mxCell id="M-P0CpYu54wChjRLXjfq-29" value="Course Name" style="ellipse;whiteSpace=wrap;html=1;" parent="1" vertex="1">
          <mxGeometry x="600" y="600" width="90" height="50" as="geometry" />
        </mxCell>
        <mxCell id="M-P0CpYu54wChjRLXjfq-30" style="edgeStyle=orthogonalEdgeStyle;rounded=0;orthogonalLoop=1;jettySize=auto;html=1;exitX=0.5;exitY=0;exitDx=0;exitDy=0;entryX=0.418;entryY=1.011;entryDx=0;entryDy=0;entryPerimeter=0;" parent="1" source="M-P0CpYu54wChjRLXjfq-25" target="M-P0CpYu54wChjRLXjfq-27" edge="1">
          <mxGeometry relative="1" as="geometry" />
        </mxCell>
        <mxCell id="M-P0CpYu54wChjRLXjfq-31" style="edgeStyle=orthogonalEdgeStyle;rounded=0;orthogonalLoop=1;jettySize=auto;html=1;exitX=0;exitY=0;exitDx=0;exitDy=0;entryX=0.882;entryY=0.805;entryDx=0;entryDy=0;entryPerimeter=0;" parent="1" source="M-P0CpYu54wChjRLXjfq-25" target="M-P0CpYu54wChjRLXjfq-26" edge="1">
          <mxGeometry relative="1" as="geometry" />
        </mxCell>
        <mxCell id="M-P0CpYu54wChjRLXjfq-32" style="edgeStyle=orthogonalEdgeStyle;rounded=0;orthogonalLoop=1;jettySize=auto;html=1;exitX=1;exitY=0;exitDx=0;exitDy=0;entryX=0.255;entryY=0.935;entryDx=0;entryDy=0;entryPerimeter=0;" parent="1" source="M-P0CpYu54wChjRLXjfq-25" target="M-P0CpYu54wChjRLXjfq-28" edge="1">
          <mxGeometry relative="1" as="geometry" />
        </mxCell>
        <mxCell id="M-P0CpYu54wChjRLXjfq-35" style="edgeStyle=orthogonalEdgeStyle;rounded=0;orthogonalLoop=1;jettySize=auto;html=1;exitX=1;exitY=0.5;exitDx=0;exitDy=0;entryX=0.5;entryY=1;entryDx=0;entryDy=0;" parent="1" source="M-P0CpYu54wChjRLXjfq-33" target="M-P0CpYu54wChjRLXjfq-25" edge="1">
          <mxGeometry relative="1" as="geometry" />
        </mxCell>
        <mxCell id="M-P0CpYu54wChjRLXjfq-33" value="Enroll" style="rhombus;whiteSpace=wrap;html=1;" parent="1" vertex="1">
          <mxGeometry x="560" y="660" width="80" height="80" as="geometry" />
        </mxCell>
        <mxCell id="M-P0CpYu54wChjRLXjfq-36" value="Student" style="shape=table;startSize=30;container=1;collapsible=1;childLayout=tableLayout;fixedRows=1;rowLines=0;fontStyle=1;align=center;resizeLast=1;html=1;" parent="1" vertex="1">
          <mxGeometry x="290" y="840" width="180" height="210" as="geometry" />
        </mxCell>
        <mxCell id="M-P0CpYu54wChjRLXjfq-37" value="" style="shape=tableRow;horizontal=0;startSize=0;swimlaneHead=0;swimlaneBody=0;fillColor=none;collapsible=0;dropTarget=0;points=[[0,0.5],[1,0.5]];portConstraint=eastwest;top=0;left=0;right=0;bottom=1;" parent="M-P0CpYu54wChjRLXjfq-36" vertex="1">
          <mxGeometry y="30" width="180" height="30" as="geometry" />
        </mxCell>
        <mxCell id="M-P0CpYu54wChjRLXjfq-38" value="PK" style="shape=partialRectangle;connectable=0;fillColor=none;top=0;left=0;bottom=0;right=0;fontStyle=1;overflow=hidden;whiteSpace=wrap;html=1;" parent="M-P0CpYu54wChjRLXjfq-37" vertex="1">
          <mxGeometry width="30" height="30" as="geometry">
            <mxRectangle width="30" height="30" as="alternateBounds" />
          </mxGeometry>
        </mxCell>
        <mxCell id="M-P0CpYu54wChjRLXjfq-39" value="UniqueID" style="shape=partialRectangle;connectable=0;fillColor=none;top=0;left=0;bottom=0;right=0;align=left;spacingLeft=6;fontStyle=5;overflow=hidden;whiteSpace=wrap;html=1;" parent="M-P0CpYu54wChjRLXjfq-37" vertex="1">
          <mxGeometry x="30" width="150" height="30" as="geometry">
            <mxRectangle width="150" height="30" as="alternateBounds" />
          </mxGeometry>
        </mxCell>
        <mxCell id="M-P0CpYu54wChjRLXjfq-40" value="" style="shape=tableRow;horizontal=0;startSize=0;swimlaneHead=0;swimlaneBody=0;fillColor=none;collapsible=0;dropTarget=0;points=[[0,0.5],[1,0.5]];portConstraint=eastwest;top=0;left=0;right=0;bottom=0;" parent="M-P0CpYu54wChjRLXjfq-36" vertex="1">
          <mxGeometry y="60" width="180" height="30" as="geometry" />
        </mxCell>
        <mxCell id="M-P0CpYu54wChjRLXjfq-41" value="" style="shape=partialRectangle;connectable=0;fillColor=none;top=0;left=0;bottom=0;right=0;editable=1;overflow=hidden;whiteSpace=wrap;html=1;" parent="M-P0CpYu54wChjRLXjfq-40" vertex="1">
          <mxGeometry width="30" height="30" as="geometry">
            <mxRectangle width="30" height="30" as="alternateBounds" />
          </mxGeometry>
        </mxCell>
        <mxCell id="M-P0CpYu54wChjRLXjfq-42" value="&lt;span style=&quot;text-align: center;&quot;&gt;personal info&lt;/span&gt;" style="shape=partialRectangle;connectable=0;fillColor=none;top=0;left=0;bottom=0;right=0;align=left;spacingLeft=6;overflow=hidden;whiteSpace=wrap;html=1;" parent="M-P0CpYu54wChjRLXjfq-40" vertex="1">
          <mxGeometry x="30" width="150" height="30" as="geometry">
            <mxRectangle width="150" height="30" as="alternateBounds" />
          </mxGeometry>
        </mxCell>
        <mxCell id="M-P0CpYu54wChjRLXjfq-43" value="" style="shape=tableRow;horizontal=0;startSize=0;swimlaneHead=0;swimlaneBody=0;fillColor=none;collapsible=0;dropTarget=0;points=[[0,0.5],[1,0.5]];portConstraint=eastwest;top=0;left=0;right=0;bottom=0;" parent="M-P0CpYu54wChjRLXjfq-36" vertex="1">
          <mxGeometry y="90" width="180" height="30" as="geometry" />
        </mxCell>
        <mxCell id="M-P0CpYu54wChjRLXjfq-44" value="FK" style="shape=partialRectangle;connectable=0;fillColor=none;top=0;left=0;bottom=0;right=0;editable=1;overflow=hidden;whiteSpace=wrap;html=1;" parent="M-P0CpYu54wChjRLXjfq-43" vertex="1">
          <mxGeometry width="30" height="30" as="geometry">
            <mxRectangle width="30" height="30" as="alternateBounds" />
          </mxGeometry>
        </mxCell>
        <mxCell id="M-P0CpYu54wChjRLXjfq-45" value="&lt;span style=&quot;text-align: center;&quot;&gt;dept&lt;/span&gt;" style="shape=partialRectangle;connectable=0;fillColor=none;top=0;left=0;bottom=0;right=0;align=left;spacingLeft=6;overflow=hidden;whiteSpace=wrap;html=1;" parent="M-P0CpYu54wChjRLXjfq-43" vertex="1">
          <mxGeometry x="30" width="150" height="30" as="geometry">
            <mxRectangle width="150" height="30" as="alternateBounds" />
          </mxGeometry>
        </mxCell>
        <mxCell id="GzT1JzK9cwp-6gkaqU1V-2" value="" style="shape=tableRow;horizontal=0;startSize=0;swimlaneHead=0;swimlaneBody=0;fillColor=none;collapsible=0;dropTarget=0;points=[[0,0.5],[1,0.5]];portConstraint=eastwest;top=0;left=0;right=0;bottom=0;" vertex="1" parent="M-P0CpYu54wChjRLXjfq-36">
          <mxGeometry y="120" width="180" height="30" as="geometry" />
        </mxCell>
        <mxCell id="GzT1JzK9cwp-6gkaqU1V-3" value="FK" style="shape=partialRectangle;connectable=0;fillColor=none;top=0;left=0;bottom=0;right=0;editable=1;overflow=hidden;whiteSpace=wrap;html=1;" vertex="1" parent="GzT1JzK9cwp-6gkaqU1V-2">
          <mxGeometry width="30" height="30" as="geometry">
            <mxRectangle width="30" height="30" as="alternateBounds" />
          </mxGeometry>
        </mxCell>
        <mxCell id="GzT1JzK9cwp-6gkaqU1V-4" value="&lt;span style=&quot;text-align: center;&quot;&gt;dept&lt;/span&gt;" style="shape=partialRectangle;connectable=0;fillColor=none;top=0;left=0;bottom=0;right=0;align=left;spacingLeft=6;overflow=hidden;whiteSpace=wrap;html=1;" vertex="1" parent="GzT1JzK9cwp-6gkaqU1V-2">
          <mxGeometry x="30" width="150" height="30" as="geometry">
            <mxRectangle width="150" height="30" as="alternateBounds" />
          </mxGeometry>
        </mxCell>
        <mxCell id="M-P0CpYu54wChjRLXjfq-46" value="" style="shape=tableRow;horizontal=0;startSize=0;swimlaneHead=0;swimlaneBody=0;fillColor=none;collapsible=0;dropTarget=0;points=[[0,0.5],[1,0.5]];portConstraint=eastwest;top=0;left=0;right=0;bottom=0;" parent="M-P0CpYu54wChjRLXjfq-36" vertex="1">
          <mxGeometry y="150" width="180" height="30" as="geometry" />
        </mxCell>
        <mxCell id="M-P0CpYu54wChjRLXjfq-47" value="" style="shape=partialRectangle;connectable=0;fillColor=none;top=0;left=0;bottom=0;right=0;editable=1;overflow=hidden;whiteSpace=wrap;html=1;" parent="M-P0CpYu54wChjRLXjfq-46" vertex="1">
          <mxGeometry width="30" height="30" as="geometry">
            <mxRectangle width="30" height="30" as="alternateBounds" />
          </mxGeometry>
        </mxCell>
        <mxCell id="M-P0CpYu54wChjRLXjfq-48" value="&lt;span style=&quot;text-align: center;&quot;&gt;phone_number&lt;/span&gt;" style="shape=partialRectangle;connectable=0;fillColor=none;top=0;left=0;bottom=0;right=0;align=left;spacingLeft=6;overflow=hidden;whiteSpace=wrap;html=1;" parent="M-P0CpYu54wChjRLXjfq-46" vertex="1">
          <mxGeometry x="30" width="150" height="30" as="geometry">
            <mxRectangle width="150" height="30" as="alternateBounds" />
          </mxGeometry>
        </mxCell>
        <mxCell id="M-P0CpYu54wChjRLXjfq-91" value="" style="shape=tableRow;horizontal=0;startSize=0;swimlaneHead=0;swimlaneBody=0;fillColor=none;collapsible=0;dropTarget=0;points=[[0,0.5],[1,0.5]];portConstraint=eastwest;top=0;left=0;right=0;bottom=0;" parent="M-P0CpYu54wChjRLXjfq-36" vertex="1">
          <mxGeometry y="180" width="180" height="30" as="geometry" />
        </mxCell>
        <mxCell id="M-P0CpYu54wChjRLXjfq-92" value="FK" style="shape=partialRectangle;connectable=0;fillColor=none;top=0;left=0;bottom=0;right=0;editable=1;overflow=hidden;whiteSpace=wrap;html=1;" parent="M-P0CpYu54wChjRLXjfq-91" vertex="1">
          <mxGeometry width="30" height="30" as="geometry">
            <mxRectangle width="30" height="30" as="alternateBounds" />
          </mxGeometry>
        </mxCell>
        <mxCell id="M-P0CpYu54wChjRLXjfq-93" value="&lt;span style=&quot;text-align: center;&quot;&gt;courses&lt;/span&gt;" style="shape=partialRectangle;connectable=0;fillColor=none;top=0;left=0;bottom=0;right=0;align=left;spacingLeft=6;overflow=hidden;whiteSpace=wrap;html=1;" parent="M-P0CpYu54wChjRLXjfq-91" vertex="1">
          <mxGeometry x="30" width="150" height="30" as="geometry">
            <mxRectangle width="150" height="30" as="alternateBounds" />
          </mxGeometry>
        </mxCell>
        <mxCell id="M-P0CpYu54wChjRLXjfq-52" value="Course" style="shape=table;startSize=30;container=1;collapsible=1;childLayout=tableLayout;fixedRows=1;rowLines=0;fontStyle=1;align=center;resizeLast=1;html=1;" parent="1" vertex="1">
          <mxGeometry x="630" y="840" width="180" height="140" as="geometry" />
        </mxCell>
        <mxCell id="M-P0CpYu54wChjRLXjfq-53" value="" style="shape=tableRow;horizontal=0;startSize=0;swimlaneHead=0;swimlaneBody=0;fillColor=none;collapsible=0;dropTarget=0;points=[[0,0.5],[1,0.5]];portConstraint=eastwest;top=0;left=0;right=0;bottom=1;" parent="M-P0CpYu54wChjRLXjfq-52" vertex="1">
          <mxGeometry y="30" width="180" height="30" as="geometry" />
        </mxCell>
        <mxCell id="M-P0CpYu54wChjRLXjfq-54" value="PK" style="shape=partialRectangle;connectable=0;fillColor=none;top=0;left=0;bottom=0;right=0;fontStyle=1;overflow=hidden;whiteSpace=wrap;html=1;" parent="M-P0CpYu54wChjRLXjfq-53" vertex="1">
          <mxGeometry width="30" height="30" as="geometry">
            <mxRectangle width="30" height="30" as="alternateBounds" />
          </mxGeometry>
        </mxCell>
        <mxCell id="M-P0CpYu54wChjRLXjfq-55" value="UniqueID" style="shape=partialRectangle;connectable=0;fillColor=none;top=0;left=0;bottom=0;right=0;align=left;spacingLeft=6;fontStyle=5;overflow=hidden;whiteSpace=wrap;html=1;" parent="M-P0CpYu54wChjRLXjfq-53" vertex="1">
          <mxGeometry x="30" width="150" height="30" as="geometry">
            <mxRectangle width="150" height="30" as="alternateBounds" />
          </mxGeometry>
        </mxCell>
        <mxCell id="M-P0CpYu54wChjRLXjfq-56" value="" style="shape=tableRow;horizontal=0;startSize=0;swimlaneHead=0;swimlaneBody=0;fillColor=none;collapsible=0;dropTarget=0;points=[[0,0.5],[1,0.5]];portConstraint=eastwest;top=0;left=0;right=0;bottom=0;" parent="M-P0CpYu54wChjRLXjfq-52" vertex="1">
          <mxGeometry y="60" width="180" height="20" as="geometry" />
        </mxCell>
        <mxCell id="M-P0CpYu54wChjRLXjfq-57" value="" style="shape=partialRectangle;connectable=0;fillColor=none;top=0;left=0;bottom=0;right=0;editable=1;overflow=hidden;whiteSpace=wrap;html=1;" parent="M-P0CpYu54wChjRLXjfq-56" vertex="1">
          <mxGeometry width="30" height="20" as="geometry">
            <mxRectangle width="30" height="20" as="alternateBounds" />
          </mxGeometry>
        </mxCell>
        <mxCell id="M-P0CpYu54wChjRLXjfq-58" value="&lt;span style=&quot;text-align: center;&quot;&gt;course name&lt;/span&gt;" style="shape=partialRectangle;connectable=0;fillColor=none;top=0;left=0;bottom=0;right=0;align=left;spacingLeft=6;overflow=hidden;whiteSpace=wrap;html=1;" parent="M-P0CpYu54wChjRLXjfq-56" vertex="1">
          <mxGeometry x="30" width="150" height="20" as="geometry">
            <mxRectangle width="150" height="20" as="alternateBounds" />
          </mxGeometry>
        </mxCell>
        <mxCell id="M-P0CpYu54wChjRLXjfq-59" value="" style="shape=tableRow;horizontal=0;startSize=0;swimlaneHead=0;swimlaneBody=0;fillColor=none;collapsible=0;dropTarget=0;points=[[0,0.5],[1,0.5]];portConstraint=eastwest;top=0;left=0;right=0;bottom=0;" parent="M-P0CpYu54wChjRLXjfq-52" vertex="1">
          <mxGeometry y="80" width="180" height="30" as="geometry" />
        </mxCell>
        <mxCell id="M-P0CpYu54wChjRLXjfq-60" value="FK" style="shape=partialRectangle;connectable=0;fillColor=none;top=0;left=0;bottom=0;right=0;editable=1;overflow=hidden;whiteSpace=wrap;html=1;" parent="M-P0CpYu54wChjRLXjfq-59" vertex="1">
          <mxGeometry width="30" height="30" as="geometry">
            <mxRectangle width="30" height="30" as="alternateBounds" />
          </mxGeometry>
        </mxCell>
        <mxCell id="M-P0CpYu54wChjRLXjfq-61" value="&lt;span style=&quot;text-align: center;&quot;&gt;course code&lt;/span&gt;" style="shape=partialRectangle;connectable=0;fillColor=none;top=0;left=0;bottom=0;right=0;align=left;spacingLeft=6;overflow=hidden;whiteSpace=wrap;html=1;" parent="M-P0CpYu54wChjRLXjfq-59" vertex="1">
          <mxGeometry x="30" width="150" height="30" as="geometry">
            <mxRectangle width="150" height="30" as="alternateBounds" />
          </mxGeometry>
        </mxCell>
        <mxCell id="M-P0CpYu54wChjRLXjfq-62" value="" style="shape=tableRow;horizontal=0;startSize=0;swimlaneHead=0;swimlaneBody=0;fillColor=none;collapsible=0;dropTarget=0;points=[[0,0.5],[1,0.5]];portConstraint=eastwest;top=0;left=0;right=0;bottom=0;" parent="M-P0CpYu54wChjRLXjfq-52" vertex="1">
          <mxGeometry y="110" width="180" height="30" as="geometry" />
        </mxCell>
        <mxCell id="M-P0CpYu54wChjRLXjfq-63" value="" style="shape=partialRectangle;connectable=0;fillColor=none;top=0;left=0;bottom=0;right=0;editable=1;overflow=hidden;whiteSpace=wrap;html=1;" parent="M-P0CpYu54wChjRLXjfq-62" vertex="1">
          <mxGeometry width="30" height="30" as="geometry">
            <mxRectangle width="30" height="30" as="alternateBounds" />
          </mxGeometry>
        </mxCell>
        <mxCell id="M-P0CpYu54wChjRLXjfq-64" value="&lt;span style=&quot;text-align: center;&quot;&gt;Credit&lt;/span&gt;" style="shape=partialRectangle;connectable=0;fillColor=none;top=0;left=0;bottom=0;right=0;align=left;spacingLeft=6;overflow=hidden;whiteSpace=wrap;html=1;" parent="M-P0CpYu54wChjRLXjfq-62" vertex="1">
          <mxGeometry x="30" width="150" height="30" as="geometry">
            <mxRectangle width="150" height="30" as="alternateBounds" />
          </mxGeometry>
        </mxCell>
        <mxCell id="M-P0CpYu54wChjRLXjfq-65" value="Enroll" style="shape=table;startSize=30;container=1;collapsible=1;childLayout=tableLayout;fixedRows=1;rowLines=0;fontStyle=1;align=center;resizeLast=1;html=1;" parent="1" vertex="1">
          <mxGeometry x="460" y="1050" width="180" height="140" as="geometry" />
        </mxCell>
        <mxCell id="M-P0CpYu54wChjRLXjfq-66" value="" style="shape=tableRow;horizontal=0;startSize=0;swimlaneHead=0;swimlaneBody=0;fillColor=none;collapsible=0;dropTarget=0;points=[[0,0.5],[1,0.5]];portConstraint=eastwest;top=0;left=0;right=0;bottom=1;" parent="M-P0CpYu54wChjRLXjfq-65" vertex="1">
          <mxGeometry y="30" width="180" height="30" as="geometry" />
        </mxCell>
        <mxCell id="M-P0CpYu54wChjRLXjfq-67" value="PK" style="shape=partialRectangle;connectable=0;fillColor=none;top=0;left=0;bottom=0;right=0;fontStyle=1;overflow=hidden;whiteSpace=wrap;html=1;" parent="M-P0CpYu54wChjRLXjfq-66" vertex="1">
          <mxGeometry width="30" height="30" as="geometry">
            <mxRectangle width="30" height="30" as="alternateBounds" />
          </mxGeometry>
        </mxCell>
        <mxCell id="M-P0CpYu54wChjRLXjfq-68" value="UniqueID" style="shape=partialRectangle;connectable=0;fillColor=none;top=0;left=0;bottom=0;right=0;align=left;spacingLeft=6;fontStyle=5;overflow=hidden;whiteSpace=wrap;html=1;" parent="M-P0CpYu54wChjRLXjfq-66" vertex="1">
          <mxGeometry x="30" width="150" height="30" as="geometry">
            <mxRectangle width="150" height="30" as="alternateBounds" />
          </mxGeometry>
        </mxCell>
        <mxCell id="M-P0CpYu54wChjRLXjfq-69" value="" style="shape=tableRow;horizontal=0;startSize=0;swimlaneHead=0;swimlaneBody=0;fillColor=none;collapsible=0;dropTarget=0;points=[[0,0.5],[1,0.5]];portConstraint=eastwest;top=0;left=0;right=0;bottom=0;" parent="M-P0CpYu54wChjRLXjfq-65" vertex="1">
          <mxGeometry y="60" width="180" height="20" as="geometry" />
        </mxCell>
        <mxCell id="M-P0CpYu54wChjRLXjfq-70" value="FK" style="shape=partialRectangle;connectable=0;fillColor=none;top=0;left=0;bottom=0;right=0;editable=1;overflow=hidden;whiteSpace=wrap;html=1;" parent="M-P0CpYu54wChjRLXjfq-69" vertex="1">
          <mxGeometry width="30" height="20" as="geometry">
            <mxRectangle width="30" height="20" as="alternateBounds" />
          </mxGeometry>
        </mxCell>
        <mxCell id="M-P0CpYu54wChjRLXjfq-71" value="&lt;div style=&quot;text-align: center;&quot;&gt;student&lt;/div&gt;" style="shape=partialRectangle;connectable=0;fillColor=none;top=0;left=0;bottom=0;right=0;align=left;spacingLeft=6;overflow=hidden;whiteSpace=wrap;html=1;" parent="M-P0CpYu54wChjRLXjfq-69" vertex="1">
          <mxGeometry x="30" width="150" height="20" as="geometry">
            <mxRectangle width="150" height="20" as="alternateBounds" />
          </mxGeometry>
        </mxCell>
        <mxCell id="M-P0CpYu54wChjRLXjfq-72" value="" style="shape=tableRow;horizontal=0;startSize=0;swimlaneHead=0;swimlaneBody=0;fillColor=none;collapsible=0;dropTarget=0;points=[[0,0.5],[1,0.5]];portConstraint=eastwest;top=0;left=0;right=0;bottom=0;" parent="M-P0CpYu54wChjRLXjfq-65" vertex="1">
          <mxGeometry y="80" width="180" height="30" as="geometry" />
        </mxCell>
        <mxCell id="M-P0CpYu54wChjRLXjfq-73" value="FK" style="shape=partialRectangle;connectable=0;fillColor=none;top=0;left=0;bottom=0;right=0;editable=1;overflow=hidden;whiteSpace=wrap;html=1;" parent="M-P0CpYu54wChjRLXjfq-72" vertex="1">
          <mxGeometry width="30" height="30" as="geometry">
            <mxRectangle width="30" height="30" as="alternateBounds" />
          </mxGeometry>
        </mxCell>
        <mxCell id="M-P0CpYu54wChjRLXjfq-74" value="&lt;span style=&quot;text-align: center;&quot;&gt;course&lt;/span&gt;" style="shape=partialRectangle;connectable=0;fillColor=none;top=0;left=0;bottom=0;right=0;align=left;spacingLeft=6;overflow=hidden;whiteSpace=wrap;html=1;" parent="M-P0CpYu54wChjRLXjfq-72" vertex="1">
          <mxGeometry x="30" width="150" height="30" as="geometry">
            <mxRectangle width="150" height="30" as="alternateBounds" />
          </mxGeometry>
        </mxCell>
        <mxCell id="M-P0CpYu54wChjRLXjfq-75" value="" style="shape=tableRow;horizontal=0;startSize=0;swimlaneHead=0;swimlaneBody=0;fillColor=none;collapsible=0;dropTarget=0;points=[[0,0.5],[1,0.5]];portConstraint=eastwest;top=0;left=0;right=0;bottom=0;" parent="M-P0CpYu54wChjRLXjfq-65" vertex="1">
          <mxGeometry y="110" width="180" height="30" as="geometry" />
        </mxCell>
        <mxCell id="M-P0CpYu54wChjRLXjfq-76" value="" style="shape=partialRectangle;connectable=0;fillColor=none;top=0;left=0;bottom=0;right=0;editable=1;overflow=hidden;whiteSpace=wrap;html=1;" parent="M-P0CpYu54wChjRLXjfq-75" vertex="1">
          <mxGeometry width="30" height="30" as="geometry">
            <mxRectangle width="30" height="30" as="alternateBounds" />
          </mxGeometry>
        </mxCell>
        <mxCell id="M-P0CpYu54wChjRLXjfq-77" value="date" style="shape=partialRectangle;connectable=0;fillColor=none;top=0;left=0;bottom=0;right=0;align=left;spacingLeft=6;overflow=hidden;whiteSpace=wrap;html=1;" parent="M-P0CpYu54wChjRLXjfq-75" vertex="1">
          <mxGeometry x="30" width="150" height="30" as="geometry">
            <mxRectangle width="150" height="30" as="alternateBounds" />
          </mxGeometry>
        </mxCell>
        <mxCell id="M-P0CpYu54wChjRLXjfq-94" style="edgeStyle=orthogonalEdgeStyle;rounded=0;orthogonalLoop=1;jettySize=auto;html=1;exitX=0;exitY=0.5;exitDx=0;exitDy=0;entryX=-0.002;entryY=0.367;entryDx=0;entryDy=0;entryPerimeter=0;endArrow=ERmany;endFill=0;startArrow=ERmany;startFill=0;" parent="1" source="M-P0CpYu54wChjRLXjfq-91" target="M-P0CpYu54wChjRLXjfq-53" edge="1">
          <mxGeometry relative="1" as="geometry">
            <Array as="points">
              <mxPoint x="270" y="1005" />
              <mxPoint x="270" y="820" />
              <mxPoint x="600" y="820" />
              <mxPoint x="600" y="882" />
              <mxPoint x="630" y="882" />
            </Array>
          </mxGeometry>
        </mxCell>
        <mxCell id="M-P0CpYu54wChjRLXjfq-103" style="edgeStyle=orthogonalEdgeStyle;rounded=0;orthogonalLoop=1;jettySize=auto;html=1;exitX=1;exitY=0.25;exitDx=0;exitDy=0;entryX=-0.017;entryY=0.817;entryDx=0;entryDy=0;entryPerimeter=0;startArrow=baseDash;startFill=0;endArrow=ERmany;endFill=0;" parent="1" source="M-P0CpYu54wChjRLXjfq-36" target="M-P0CpYu54wChjRLXjfq-69" edge="1">
          <mxGeometry relative="1" as="geometry">
            <Array as="points">
              <mxPoint x="480" y="885" />
              <mxPoint x="480" y="1040" />
              <mxPoint x="440" y="1040" />
              <mxPoint x="440" y="1120" />
              <mxPoint x="457" y="1120" />
            </Array>
          </mxGeometry>
        </mxCell>
        <mxCell id="M-P0CpYu54wChjRLXjfq-104" style="edgeStyle=orthogonalEdgeStyle;rounded=0;orthogonalLoop=1;jettySize=auto;html=1;exitX=1;exitY=0.5;exitDx=0;exitDy=0;entryX=1;entryY=0.5;entryDx=0;entryDy=0;" parent="1" source="M-P0CpYu54wChjRLXjfq-53" target="M-P0CpYu54wChjRLXjfq-72" edge="1">
          <mxGeometry relative="1" as="geometry" />
        </mxCell>
      </root>
    </mxGraphModel>
  </diagram>
</mxfile>
